<?xml version="1.0" encoding="utf-8"?>
<svg viewBox="0 0 500 500" xmlns="http://www.w3.org/2000/svg">
  <path fill="#00B488" d="M 240.157 497.764 C 220.441 494.651 203.839 480.124 181.01 457.297 C 112.527 392.963 41.966 220.714 32.628 75.444 L 115.639 75.444 C 137.429 227.978 171.671 331.743 245.344 415.791 C 281.661 381.55 311.753 333.817 332.506 295.424 C 292.039 276.747 269.21 241.466 256.76 209.299 C 218.366 109.685 251.57 3.846 360.524 0.733 C 440.422 0.733 467.402 60.916 468.438 117.987 C 467.401 152.229 462.212 176.094 451.836 205.149 C 429.007 210.336 405.142 204.112 390.615 193.736 C 379.201 185.434 375.05 189.584 382.314 166.755 C 390.615 137.703 393.728 74.406 354.298 73.369 C 327.319 75.443 320.056 108.648 320.056 131.476 C 327.32 224.864 387.503 266.369 467.402 245.617 L 467.402 305.8 C 441.461 312.027 440.422 312.027 408.255 313.064 C 389.577 356.645 287.888 507.104 239.12 497.764 L 240.157 497.764 Z"/>
</svg>