<?xml version="1.0" encoding="utf-8"?>
<svg viewBox="0.8120068311691284 0.7897323369979858 284.43316650390625 140.6262664794922" width="284.43316650390625" height="140.6262664794922" xmlns="http://www.w3.org/2000/svg">
  <path d="M 127.472 111.226 C 125.362 110.665 122.162 108.726 120.352 106.915 C 115.132 101.695 113.642 96.016 113.062 79.103 C 112.492 62.175 113.602 63.413 102.552 67.399 C 99.382 68.543 94.032 69.767 90.662 70.119 C 85.231 70.686 84.357 71.09 82.926 73.685 C 76.151 85.97 65.424 99.554 56.193 107.544 C 52.555 110.694 50.911 111.444 47.635 111.444 C 35.907 111.444 18.795 88.057 9.329 59.09 C 5.623 47.753 0.812 25.971 0.812 20.531 L 0.812 17.368 L 9.52 17.657 L 18.227 17.946 L 18.888 21.446 C 19.252 23.371 20.332 29.221 21.289 34.446 C 23.609 47.109 28.842 63.143 33.832 72.88 C 38.805 82.582 46.431 93.446 48.269 93.446 C 50.673 93.446 64.566 74.946 66.326 69.402 C 66.757 68.044 65.093 65.762 60.012 60.751 C 50.417 51.288 48.372 45.979 48.337 30.446 C 48.313 19.421 48.44 18.719 51.405 13.446 C 56.831 3.797 68.1 -1.052 79.314 1.435 C 86.85 3.106 91.182 6.45 94.442 13.128 C 96.962 18.273 97.262 19.906 97.142 27.929 C 97.062 32.888 96.382 38.971 95.622 41.446 C 94.242 45.931 94.212 45.947 89.215 46.242 C 85.339 46.47 83.595 46.063 81.549 44.454 C 78.927 42.391 78.906 42.272 79.475 32.658 C 80.005 23.696 79.88 22.734 77.858 20.196 C 75.109 16.745 70.041 16.43 67.232 19.534 C 64.496 22.558 63.973 34.96 66.322 41.113 C 68.515 46.852 72.956 51.943 78.217 54.744 C 81.46 56.471 83.977 56.92 90.312 56.9 C 99.392 56.873 106.562 54.234 113.042 48.546 C 116.432 45.569 117.122 45.368 123.002 45.647 L 129.312 45.946 L 129.922 67.446 C 130.262 79.271 131.032 90.16 131.632 91.646 C 133.132 95.356 136.962 97.696 140.192 96.885 C 148.222 94.875 154.642 78.199 156.632 54.176 L 157.312 45.946 L 171.312 45.946 L 171.613 51.196 C 171.963 57.197 173.352 57.91 176.482 53.685 C 177.602 52.165 180.942 49.607 183.892 47.997 C 193.831 42.592 207.804 44.861 213.104 52.724 C 216.314 57.485 219.848 61.309 216.123 77.191 C 213.163 89.813 200.966 93.807 203.175 96.387 C 205.396 98.957 213.949 95.86 217.924 93.273 C 219.798 92.054 224.607 89.872 228.937 75.836 C 235.607 54.248 245.416 45.452 262.697 45.554 C 274.137 45.621 281.958 51.005 284.497 60.571 C 288.397 75.228 276.788 86.546 255.788 88.573 C 252.327 88.905 249.218 89.636 248.878 90.194 C 247.958 91.683 252.978 95.624 257.317 96.834 C 262.846 98.364 268.378 98.063 274.567 95.884 C 282.846 92.974 282.697 92.874 282.357 101.104 L 282.067 108.324 L 277.067 110.234 C 273.527 111.585 269.447 112.154 263.067 112.174 C 251.237 112.214 244.197 109.604 237.176 102.594 L 232.166 97.584 C 232.166 97.584 216.115 107.914 205.355 107.913 C 189.624 107.912 179.476 98.039 176.085 91.56 C 173.495 86.6 189.069 92.513 194.731 83.646 C 205.663 66.525 200.531 60.238 192.832 61.226 C 187.111 61.96 178.44 66.213 175.531 74.889 C 174.972 76.57 174.242 85.146 173.912 93.946 L 180.743 141.416 L 156.875 141.416 L 157.011 103.696 C 156.852 100.257 156.312 97.446 155.822 97.446 C 155.332 97.446 153.562 99.356 151.873 101.696 C 148.183 106.805 143.262 110.316 138.113 111.516 C 133.562 112.576 132.462 112.546 127.472 111.226 Z M 260.288 76.25 C 264.757 74.65 269.567 69.871 269.567 67.029 C 269.567 64.219 266.756 61.083 263.618 60.393 C 259.277 59.439 252.397 62.805 249.667 67.219 C 247.107 71.37 245.378 76.759 246.188 78.072 C 246.897 79.233 254.817 78.208 260.288 76.25 Z M 115.122 33.033 C 112.612 30.873 112.312 29.97 112.312 24.446 C 112.312 18.922 112.612 18.019 115.122 15.859 C 118.262 13.158 123.932 12.634 128.342 14.641 C 133.182 16.847 135.242 24.221 132.622 29.974 C 130.032 35.651 120.162 37.375 115.122 33.033 Z" fill="#00b488" transform="matrix(1, 0, 0, 1, 0, 0)"/>
</svg>